<svg xmlns="http://www.w3.org/2000/svg" viewBox="0 0 1320 392" preserveAspectRatio="xMidYMid meet">
  <g transform="translate(-1092.6589653318342,69.25591013461812)">
    <path d="M1145.81,73.94c25.67,2.72 51.57,3.06 77.33,2.07c99.48,-3.79 199.8,-25.92 293.88,-57.83c36.45,-12.36 74.26,-26.14 106.51,-47.6c7.11,-4.73 12.44,-8.69 18.3,-14.64c0.72,-0.73 6.22,-5.9 5.76,-8.78c-0.97,-6.11 -15.49,-5.58 -18.75,-5.36c-17.91,1.22 -36.13,8.09 -52.36,15.29c-53.46,23.71 -101.99,67.04 -128.35,119.58c-9.91,19.75 -19.56,48.6 2.81,63.91c24.37,16.68 61.83,14.38 89.47,11.67c72.43,-7.1 142.42,-37.23 205.12,-72.94c14.26,-8.12 28.2,-16.79 41.95,-25.75c5.79,-3.77 13.78,-11.98 21.1,-13.33c9.39,-1.73 4.61,10.04 2.88,13.38c-1.15,2.21 -2.29,4.42 -3.4,6.64c-1.45,2.9 -2.99,5.76 -4.29,8.72c-1.45,3.31 -2.73,6.7 -3.96,10.09c-4.95,13.64 -12,34.01 -2.61,47.56c2.56,3.7 11.61,9.78 15.06,11.45c3.54,1.71 7.33,2.86 11.11,3.94c4.25,1.21 8.55,2.36 12.94,2.93c16.87,2.17 34.41,-0.04 51,-2.96c52.58,-9.25 102.59,-31.07 148.93,-57.08c18.91,-10.62 37.13,-22.46 54.61,-35.27c6.82,-5 14.58,-14.38 24.04,-13.04c3.74,0.53 4.21,4.55 4.49,7.34c0.95,9.45 -1.29,18.09 2.43,27.45c6.88,17.33 26.31,23.96 43.06,26.77c37.59,6.29 76.09,1.34 112.27,-9.77c30.91,-9.5 60.31,-22.56 84.78,-44.1c11.46,-10.09 22.02,-21.82 30.62,-34.45c4.39,-6.46 8.67,-13.59 9.33,-21.6c1.18,-14.5 -15.71,-14.94 -26.02,-14.08c-21.77,1.81 -45.28,9.99 -63.18,22.61c-14.88,10.49 -26.72,25.09 -38.41,38.83c-17.4,20.43 -34.61,40.96 -53.07,60.45c-46.27,48.84 -97.95,91.2 -155.48,126.25c-42.64,25.97 -88.21,47.77 -135.71,63.28c-88.67,28.95 -181.3,37.99 -274.12,36.63c-56.5,-0.83 -112.77,-5.04 -168.58,-14.01c-48.32,-7.76 -96.96,-17.9 -142.64,-35.81c-25.45,-9.98 -52.44,-21.96 -73.22,-40.21c-10.6,-9.31 -19.35,-22.09 -6.73,-34.08c2.28,-2.17 4.88,-4.09 7.72,-5.44c20.14,-9.55 46.05,-8.5 67.6,-7.78c9.33,0.31 18.64,0.97 27.95,1.65c10.64,0.78 21.28,1.74 31.9,2.74c11.67,1.09 23.32,2.31 34.98,3.53c86.48,9.07 172.69,21.66 259.62,25.64c137.28,6.29 275.33,-1.64 411,-23.53c79.5,-12.82 161.97,-27.4 235.98,-60.56c16.27,-7.29 32.73,-16.35 47.44,-26.52c3.7,-2.56 7.86,-11.58 10.78,-8.15c3.18,3.74 -3.69,9.18 -6.44,13.25c-6.79,10.03 -15.81,15.29 -26.25,21.26c-48.74,27.86 -106.22,41.98 -160.56,53.78c-200.14,43.47 -408.96,55.49 -612.6,34.06c-84.32,-8.87 -168.98,-22.99 -253.8,-26.02c-19.34,-0.69 -43.08,-1.98 -61.48,5.83c-3.41,1.45 -12.07,6.14 -9.24,11.54c3.4,6.48 11.43,12.37 17.07,16.45c12.84,9.31 27.18,16.8 41.59,23.35c50.82,23.08 106.1,34.91 160.95,43.69c55.3,8.85 111.04,13.01 167.02,13.83c91.44,1.33 182.72,-7.44 270.09,-35.9c68.96,-22.46 132.96,-58.25 191.35,-100.94c40.72,-29.77 77.41,-64.74 111.17,-102.14c28.61,-31.69 54.04,-73.35 93.4,-92.98c18.71,-9.33 41.24,-16.42 62.32,-15.64c16.11,0.6 30.27,9.34 28.36,27.29c-1.02,9.59 -5.87,18.2 -11.19,26c-9.15,13.43 -20.37,25.88 -32.58,36.59c-25.61,22.48 -56.4,36.22 -88.73,46.07c-37.78,11.51 -78.46,16.79 -117.66,9.74c-21.36,-3.84 -42.78,-13.23 -51.03,-34.9c-2.97,-7.79 -3.23,-16.69 -2.91,-24.87c0.06,-1.49 -0.57,-3.18 0.16,-4.48c0.97,-1.74 5.06,0.83 4.92,1.82c-0.18,1.29 -2.18,1.42 -3.23,2.2c-4.38,3.29 -8.61,6.79 -13.02,10.05c-12.47,9.22 -25.28,17.88 -38.52,25.96c-39.26,23.97 -81.54,44.14 -125.56,57.66c-26.55,8.15 -54.67,14.5 -82.61,14.3c-29.12,-0.22 -68.14,-11.21 -68.37,-46.63c-0.04,-5.34 2.48,-17.98 3.85,-22.94c1.1,-3.97 2.55,-7.84 3.96,-11.71c1.34,-3.66 2.73,-7.3 4.29,-10.86c1.32,-3.02 2.88,-5.93 4.34,-8.88c1.15,-2.32 2.31,-4.63 3.51,-6.92c1.89,-3.6 5.02,-12.06 10.74,-7.17c7.53,6.44 -8.4,13.64 -11.12,15.51c-22.21,15.19 -45.23,29.38 -69,42c-52.95,28.12 -109.98,51.99 -169.48,61.41c-31.03,4.92 -65.01,7.75 -95.77,-0.64c-7.05,-1.92 -18.2,-6.67 -24.21,-11.06c-26.2,-19.1 -17.27,-52.85 -4.97,-77.21c27.67,-54.8 78.08,-99.87 133.96,-124.61c19.71,-8.73 44.72,-18.85 66.8,-15.53c10.06,1.51 21.45,7.57 18.78,19.72c-2.76,12.55 -19.01,22.69 -28.62,29.04c-33.08,21.87 -71.65,36 -108.99,48.61c-53.65,18.12 -108.5,32.21 -164.26,42.05c-53.37,9.42 -107.36,16.33 -161.66,15.03c-27.2,-0.65 -56.58,-1.92 -82.45,-11.35c-7.3,-2.66 15.48,-2.39 33.83,-0.44z"
          class="sig-path" />
  </g>
  <style xmlns="http://www.w3.org/2000/svg" id="stroke-anim-style">
    .sig-path {
      fill: none;
      stroke: rgb(240, 240, 240);
      stroke-dasharray: 9238.26px;
      stroke-linecap: round;
      stroke-linejoin: round;
      animation:
        stroke-draw-loop 4.5s ease-in-out infinite,
        stroke-visible-loop 4.5s ease-in-out infinite,
        stroke-width-loop 4.5s ease-in-out infinite;
    }

    @keyframes stroke-draw-loop {
      0% { stroke-dashoffset: 9238.257px; }
      33.33%, 100% { stroke-dashoffset: 0px; }
    }

    @keyframes stroke-visible-loop {
      0% { stroke-opacity: 0.2; }
      5%, 75% { stroke-opacity: 1; }
      90%, 100% { stroke-opacity: 0.2; }
    }

    @keyframes stroke-width-loop {
      0% { stroke-width: 12px; }
      16.66% { stroke-width: 20px; }
      33.33%, 100% { stroke-width: 12px; }
    }
  </style>
</svg>