<?xml version="1.0" encoding="UTF-8"?>
<svg version="1.1" xmlns="http://www.w3.org/2000/svg" width="300" height="300">
<path d="M0 0 C99 0 198 0 300 0 C300 99 300 198 300 300 C201 300 102 300 0 300 C0 201 0 102 0 0 Z " fill="#00B7AA" transform="translate(0,0)"/>
<path d="M0 0 C52.8 0 105.6 0 160 0 C160 31.68 160 63.36 160 96 C149.44 96 138.88 96 128 96 C128 90.72 128 85.44 128 80 C117.44 80 106.88 80 96 80 C96 85.28 96 90.56 96 96 C85.44 96 74.88 96 64 96 C64 101.28 64 106.56 64 112 C74.56 112 85.12 112 96 112 C96 152.92 96 193.84 96 236 C64.32 236 32.64 236 0 236 C-0.144375 221.005625 -0.28875 206.01125 -0.4375 190.5625 C-0.50122803 185.84138916 -0.56495605 181.12027832 -0.63061523 176.25610352 C-0.66223145 170.45690918 -0.66223145 170.45690918 -0.66810608 167.73545837 C-0.67880175 165.84906939 -0.70331116 163.96272603 -0.73902893 162.0766449 C-1.06104748 144.16513825 -1.06104748 144.16513825 3.26928711 138.41381836 C5.0655365 136.58433533 5.0655365 136.58433533 7 135 C7.75708755 134.37094254 8.51417511 133.74188507 9.29420471 133.09376526 C9.98086716 132.52657272 10.6675296 131.95938019 11.375 131.375 C15.23202769 127.72646029 15.79480697 124.12324208 16 119 C16 116.69 16 114.38 16 112 C10.72 112 5.44 112 0 112 C-0.66 102.76 -1.32 93.52 -2 84 C-2.66 86.31 -3.32 88.62 -4 91 C-5.14982602 86.90996141 -5.11094256 82.96822949 -5.0625 78.75 C-5.05798828 78.00492187 -5.05347656 77.25984375 -5.04882812 76.4921875 C-5.03709246 74.6614236 -5.0191585 72.83070127 -5 71 C-5.33 71 -5.66 71 -6 71 C-6.07613173 63.13466601 -6.12863448 55.26942724 -6.16479492 47.40380859 C-6.17817551 44.72850279 -6.20033385 42.05367851 -6.22631836 39.37841797 C-6.26275084 35.53086249 -6.27973828 31.68363414 -6.29296875 27.8359375 C-6.30845261 26.64197357 -6.32393646 25.44800964 -6.33988953 24.21786499 C-6.34109628 18.2493864 -6.15166081 14.21174158 -3 9 C-2.01 6.03 -1.02 3.06 0 0 Z " fill="#282022" transform="translate(80,64)"/>
<path d="M0 0 C10.56 0 21.12 0 32 0 C32 10.56 32 21.12 32 32 C42.56 32 53.12 32 64 32 C64 37.28 64 42.56 64 48 C74.56 48 85.12 48 96 48 C96 88.92 96 129.84 96 172 C64.32 172 32.64 172 0 172 C-0.144375 157.005625 -0.28875 142.01125 -0.4375 126.5625 C-0.50122803 121.84138916 -0.56495605 117.12027832 -0.63061523 112.25610352 C-0.66223145 106.45690918 -0.66223145 106.45690918 -0.66810608 103.73545837 C-0.67880175 101.84906939 -0.70331116 99.96272603 -0.73902893 98.0766449 C-1.0610446 80.16529851 -1.0610446 80.16529851 3.26928711 74.40991211 C5.77642916 71.85331683 8.59770928 69.69475771 11.375 67.4375 C15.63902478 63.28871913 15.91299284 59.02686375 16.05004883 53.37280273 C16.0587149 51.24763312 16.03037688 49.12493518 16 47 C16.00810376 45.54294416 16.01979191 44.08590362 16.03515625 42.62890625 C16.07146294 39.08295276 16.03412245 35.54873472 16 32 C10.72 32 5.44 32 0 32 C0 21.44 0 10.88 0 0 Z " fill="#AD937D" transform="translate(80,128)"/>
<path d="M0 0 C31.68 0 63.36 0 96 0 C96 21.12 96 42.24 96 64 C64.32 64 32.64 64 0 64 C0 42.88 0 21.76 0 0 Z " fill="#302C29" transform="translate(144,64)"/>
<path d="M0 0 C5.28 0 10.56 0 16 0 C16 5.28 16 10.56 16 16 C21.28 16 26.56 16 32 16 C32 51.64 32 87.28 32 124 C16.16 124 0.32 124 -16 124 C-16.28076167 101.40091421 -16.28076167 101.40091421 -16.34179688 91.73632812 C-16.38357465 85.15234684 -16.43289105 78.56904972 -16.52807617 71.9855957 C-16.60437092 66.67520105 -16.64603989 61.36554043 -16.6641407 56.05463982 C-16.67703273 54.03284086 -16.70220869 52.01108019 -16.7401104 49.98959541 C-17.06089302 32.16493311 -17.06089302 32.16493311 -12.73071289 26.41381836 C-10.9344635 24.58433533 -10.9344635 24.58433533 -9 23 C-8.24291245 22.37094254 -7.48582489 21.74188507 -6.70579529 21.09376526 C-6.01913284 20.52657272 -5.3324704 19.95938019 -4.625 19.375 C-0.76797231 15.72646029 -0.20519303 12.12324208 0 7 C0 4.69 0 2.38 0 0 Z " fill="#020002" transform="translate(96,176)"/>
<path d="M0 0 C9.24 0 18.48 0 28 0 C24.38737448 4.21472977 20.81877791 8.31812545 17.00390625 12.32421875 C15.77922084 13.98147327 15.77922084 13.98147327 16.25 16.1171875 C16.88653681 18.07592014 16.88653681 18.07592014 18.4375 19.4375 C20.40632323 21.40632323 21.04626787 23.41129852 22 26 C22.33 26.33 22.66 26.66 23 27 C23.04063832 28.66617115 23.042721 30.33388095 23 32 C25.97 32 28.94 32 32 32 C32 62.36 32 92.72 32 124 C16.16 124 0.32 124 -16 124 C-16 88.36 -16 52.72 -16 16 C-10.72 16 -5.44 16 0 16 C0 10.72 0 5.44 0 0 Z " fill="#010001" transform="translate(208,176)"/>
<path d="M0 0 C10.56 0 21.12 0 32 0 C32 5.28 32 10.56 32 16 C42.56 16 53.12 16 64 16 C64 21.28 64 26.56 64 32 C53.44 32 42.88 32 32 32 C32 37.28 32 42.56 32 48 C26.72 48 21.44 48 16 48 C16 83.64 16 119.28 16 156 C10.72 156 5.44 156 0 156 C0 115.08 0 74.16 0 32 C-10.56 32 -21.12 32 -32 32 C-32 26.72 -32 21.44 -32 16 C-21.44 16 -10.88 16 0 16 C0 10.72 0 5.44 0 0 Z " fill="#EACBA6" transform="translate(176,144)"/>
<path d="M0 0 C10.56 0 21.12 0 32 0 C32 40.92 32 81.84 32 124 C21.44 124 10.88 124 0 124 C0 83.08 0 42.16 0 0 Z " fill="#010001" transform="translate(144,176)"/>
<path d="M0 0 C36.96 0 73.92 0 112 0 C112 10.56 112 21.12 112 32 C101.44 32 90.88 32 80 32 C80 26.72 80 21.44 80 16 C69.44 16 58.88 16 48 16 C48 21.28 48 26.56 48 32 C42.72 32 37.44 32 32 32 C32 26.72 32 21.44 32 16 C21.44 16 10.88 16 0 16 C0 10.72 0 5.44 0 0 Z " fill="#020202" transform="translate(128,128)"/>
<path d="M0 0 C0.33 0 0.66 0 1 0 C1 3.63 1 7.26 1 11 C11.56 11 22.12 11 33 11 C33 26.84 33 42.68 33 59 C22.44 59 11.88 59 1 59 C1 69.56 1 80.12 1 91 C6.28 91 11.56 91 17 91 C17 96.28 17 101.56 17 107 C11.72 107 6.44 107 1 107 C0.34 97.76 -0.32 88.52 -1 79 C-1.66 81.31 -2.32 83.62 -3 86 C-4.14982602 81.90996141 -4.11094256 77.96822949 -4.0625 73.75 C-4.05798828 73.00492187 -4.05347656 72.25984375 -4.04882812 71.4921875 C-4.03709246 69.6614236 -4.0191585 67.83070127 -4 66 C-4.33 66 -4.66 66 -5 66 C-5.07613173 58.13466601 -5.12863448 50.26942724 -5.16479492 42.40380859 C-5.17817551 39.72850279 -5.20033385 37.05367851 -5.22631836 34.37841797 C-5.26275084 30.53086249 -5.27973828 26.68363414 -5.29296875 22.8359375 C-5.30845261 21.64197357 -5.32393646 20.44800964 -5.33988953 19.21786499 C-5.34106941 13.3822844 -5.33207654 9.02451836 -2 4 C-1.608125 3.21625 -1.21625 2.4325 -0.8125 1.625 C-0.544375 1.08875 -0.27625 0.5525 0 0 Z " fill="#2B2526" transform="translate(79,69)"/>
<path d="M0 0 C1.94951569 -0.0131424 1.94951569 -0.0131424 3.93841553 -0.02655029 C7.49643086 -0.0493129 11.05371998 -0.04052065 14.61174774 -0.02465487 C18.33835277 -0.01197976 22.06489639 -0.02374043 25.79150391 -0.03158569 C32.049267 -0.04067763 38.30673487 -0.02870657 44.56445312 -0.00488281 C51.79524456 0.02232795 59.02533107 0.01351344 66.25610542 -0.01401484 C72.46860849 -0.03671816 78.68089956 -0.03990013 84.89343071 -0.02682149 C88.60202461 -0.01903356 92.31028735 -0.01796685 96.01885986 -0.03450394 C100.15362165 -0.05165418 104.28717175 -0.02787354 108.421875 0 C110.26262604 -0.01518173 110.26262604 -0.01518173 112.14056396 -0.03067017 C120.32550378 0.07171288 120.32550378 0.07171288 124.44775391 2.74990845 C126.2109375 5.64697266 126.2109375 5.64697266 127.2109375 12.64697266 C77.3809375 12.64697266 27.5509375 12.64697266 -23.7890625 12.64697266 C-21.8090625 10.33697266 -19.8290625 8.02697266 -17.7890625 5.64697266 C-17.10408691 4.69094147 -16.41911133 3.73491028 -15.71337891 2.74990845 C-10.89539011 -0.71480592 -5.78131544 -0.04768183 0 0 Z " fill="#00A38F" transform="translate(105.7890625,51.35302734375)"/>
<path d="M0 0 C5.28 0 10.56 0 16 0 C16 30.36 16 60.72 16 92 C10.72 92 5.44 92 0 92 C0 61.64 0 31.28 0 0 Z " fill="#FFFFFF" transform="translate(176,208)"/>
<path d="M0 0 C5.28 0 10.56 0 16 0 C16 30.36 16 60.72 16 92 C10.72 92 5.44 92 0 92 C0 61.64 0 31.28 0 0 Z " fill="#FFFFFF" transform="translate(128,208)"/>
<path d="M0 0 C5.28 0 10.56 0 16 0 C16 5.28 16 10.56 16 16 C26.56 16 37.12 16 48 16 C48 21.28 48 26.56 48 32 C32.16 32 16.32 32 0 32 C0 21.44 0 10.88 0 0 Z " fill="#211C1C" transform="translate(112,128)"/>
<path d="M0 0 C0 29.04 0 58.08 0 88 C-3.96 88 -7.92 88 -12 88 C-12.02255449 79.9334741 -12.04091709 71.86697254 -12.05181217 63.80042362 C-12.05704014 60.05516963 -12.06413622 56.30993824 -12.07543945 52.56469727 C-12.08627141 48.95318313 -12.09227749 45.34169079 -12.09487724 41.73016167 C-12.09673094 40.34939671 -12.10035049 38.968633 -12.10573006 37.58787727 C-12.11294447 35.66024048 -12.11340809 33.73258193 -12.11352539 31.80493164 C-12.115746 30.70572891 -12.11796661 29.60652618 -12.12025452 28.47401428 C-12 26 -12 26 -11 25 C-11 24.00097656 -11 23.00195312 -11 21.97265625 C-11 14.43802676 -10.80022422 9.89945578 -5.5 4.0625 C-1.32520325 0 -1.32520325 0 0 0 Z " fill="#017175" transform="translate(80,212)"/>
<path d="M0 0 C1.64862282 -0.00234146 1.64862282 -0.00234146 3.33055115 -0.00473022 C4.53169052 0.00395584 5.7328299 0.01264191 6.97036743 0.02159119 C8.87336357 0.02373627 8.87336357 0.02373627 10.81480408 0.02592468 C14.29221956 0.0307284 17.7694416 0.04882691 21.24678755 0.07067418 C23.42045699 0.08383753 25.59412286 0.09433472 27.76781082 0.1039257 C35.35446704 0.13770845 42.94096498 0.18296114 50.52749634 0.23789978 C57.59386646 0.28874145 64.66000597 0.31340307 71.72653806 0.32608992 C77.79814984 0.33823789 83.86947336 0.36949457 89.94092333 0.4153747 C93.56513827 0.44239493 97.18898036 0.46157508 100.8133049 0.46121407 C104.85706256 0.4615241 108.89950035 0.50149573 112.94302368 0.54502869 C114.14011459 0.53954514 115.33720551 0.53406158 116.5705719 0.52841187 C125.61547149 0.67724244 125.61547149 0.67724244 129.37628174 3.71688843 C131.58609009 6.2361908 131.58609009 6.2361908 131.58609009 7.2361908 C82.74609009 7.2361908 33.90609009 7.2361908 -16.41390991 7.2361908 C-13.17706781 2.92040132 -13.17706781 2.92040132 -9.41390991 2.2361908 C-8.52759416 1.73689639 -8.52759416 1.73689639 -7.62337303 1.22751522 C-4.92384448 0.01631212 -2.95535859 -0.00843312 0 0 Z " fill="#008071" transform="translate(99.41390991210938,56.76380920410156)"/>
<path d="M0 0 C10.56 0 21.12 0 32 0 C32 5.28 32 10.56 32 16 C26.72 16 21.44 16 16 16 C16 21.28 16 26.56 16 32 C10.72 32 5.44 32 0 32 C0 21.44 0 10.88 0 0 Z " fill="#C3BFC3" transform="translate(176,176)"/>
<path d="M0 0 C10.56 0 21.12 0 32 0 C32 10.56 32 21.12 32 32 C26.72 32 21.44 32 16 32 C16 26.72 16 21.44 16 16 C10.72 16 5.44 16 0 16 C0 10.72 0 5.44 0 0 Z " fill="#C3BFC3" transform="translate(112,176)"/>
<path d="M0 0 C5.28 0 10.56 0 16 0 C16 15.84 16 31.68 16 48 C10.72 48 5.44 48 0 48 C0 32.16 0 16.32 0 0 Z " fill="#38352F" transform="translate(224,80)"/>
<path d="M0 0 C5.28 0 10.56 0 16 0 C16 15.84 16 31.68 16 48 C10.72 48 5.44 48 0 48 C0 32.16 0 16.32 0 0 Z " fill="#38352F" transform="translate(176,80)"/>
<path d="M0 0 C5.28 0 10.56 0 16 0 C16 15.84 16 31.68 16 48 C10.72 48 5.44 48 0 48 C0 32.16 0 16.32 0 0 Z " fill="#38352F" transform="translate(144,80)"/>
<path d="M0 0 C0.33 0 0.66 0 1 0 C1.33 4.62 1.66 9.24 2 14 C2.99 13.34 3.98 12.68 5 12 C5.66 12.33 6.32 12.66 7 13 C7 16.3 7 19.6 7 23 C7.66 23 8.32 23 9 23 C9.13929367 32.0058147 9.24576834 41.01125612 9.31087303 50.01791477 C9.34212749 54.20056388 9.38449 58.38247364 9.45263672 62.56469727 C9.51804336 66.60424453 9.55375029 70.64308272 9.56926346 74.68311882 C9.580312 76.22091771 9.60188823 77.75867971 9.63438034 79.296175 C9.90939073 92.85409915 9.90939073 92.85409915 6.15087891 97.31225586 C5.13012014 98.24168043 4.07999354 99.14012068 3 100 C2.01 100.99 1.02 101.98 0 103 C0 69.01 0 35.02 0 0 Z " fill="#017C74" transform="translate(240,67)"/>
<path d="M0 0 C0.33 0 0.66 0 1 0 C1 30.03 1 60.06 1 91 C6.28 91 11.56 91 17 91 C17 96.28 17 101.56 17 107 C11.72 107 6.44 107 1 107 C0.34 97.76 -0.32 88.52 -1 79 C-1.66 81.31 -2.32 83.62 -3 86 C-4.14982602 81.90996141 -4.11094256 77.96822949 -4.0625 73.75 C-4.05798828 73.00492187 -4.05347656 72.25984375 -4.04882812 71.4921875 C-4.03709246 69.6614236 -4.0191585 67.83070127 -4 66 C-4.33 66 -4.66 66 -5 66 C-5.07613173 58.13466601 -5.12863448 50.26942724 -5.16479492 42.40380859 C-5.17817551 39.72850279 -5.20033385 37.05367851 -5.22631836 34.37841797 C-5.26275084 30.53086249 -5.27973828 26.68363414 -5.29296875 22.8359375 C-5.30845261 21.64197357 -5.32393646 20.44800964 -5.33988953 19.21786499 C-5.34106941 13.3822844 -5.33207654 9.02451836 -2 4 C-1.608125 3.21625 -1.21625 2.4325 -0.8125 1.625 C-0.544375 1.08875 -0.27625 0.5525 0 0 Z " fill="#01756B" transform="translate(79,69)"/>
<path d="M0 0 C0.33 0.66 0.66 1.32 1 2 C0.04060332 3.69036558 -0.96642853 5.35394174 -2 7 C-4.00068519 11.10121937 -4.26035028 14.47552864 -4.28710938 19.01831055 C-4.29394241 19.70523483 -4.30077545 20.39215912 -4.30781555 21.09989929 C-4.3213598 22.58560121 -4.33044112 24.07134916 -4.33552551 25.55710411 C-4.34385676 27.9169597 -4.36440363 30.27643604 -4.38806152 32.63618469 C-4.43619228 37.65323294 -4.46914462 42.67031971 -4.5 47.6875 C-4.53581022 53.48805837 -4.57801759 59.28843248 -4.63594055 65.08881569 C-4.65581348 67.39848537 -4.66429064 69.70800921 -4.67224121 72.01774597 C-4.81336218 91.81336218 -4.81336218 91.81336218 -9 96 C-11.01169798 87.84507781 -11.48714865 79.80966345 -11.6875 71.4375 C-11.70413696 70.74322906 -11.72077393 70.04895813 -11.73791504 69.33364868 C-11.84055067 64.73057056 -11.90660104 60.12752851 -11.96307373 55.52368164 C-12.00148009 52.89884483 -12.05836267 50.27483334 -12.11767578 47.65039062 C-12.21535828 43.06201723 -12.2480693 38.47659749 -12.24136353 33.88723755 C-12.24705999 32.10653941 -12.27121198 30.32579176 -12.31503296 28.54562378 C-12.66776553 13.02484108 -12.66776553 13.02484108 -6.97723389 6.40681458 C-4.75785504 4.11512716 -2.4605836 2.03158355 0 0 Z " fill="#019A8F" transform="translate(79,67)"/>
<path d="M0 0 C5.28 0 10.56 0 16 0 C16 10.56 16 21.12 16 32 C10.72 32 5.44 32 0 32 C0 21.44 0 10.88 0 0 Z " fill="#171819" transform="translate(224,128)"/>
<path d="M0 0 C1.12439484 -0.01142029 2.24878967 -0.02284058 3.40725708 -0.03460693 C4.64161499 -0.03684265 5.8759729 -0.03907837 7.1477356 -0.04138184 C8.44712067 -0.05131165 9.74650574 -0.06124146 11.08526611 -0.07147217 C14.65142411 -0.09770489 18.21750684 -0.11060671 21.78374624 -0.11949348 C24.01185843 -0.12535686 26.23995007 -0.13356678 28.46805191 -0.14250183 C35.43965302 -0.16984644 42.41120714 -0.18918285 49.38285816 -0.19690561 C57.4302655 -0.20586915 65.47699376 -0.24097609 73.5241946 -0.2989068 C79.7451027 -0.34213573 85.9658197 -0.36231383 92.18687642 -0.36498785 C95.90235508 -0.36708419 99.6171952 -0.37890152 103.33251572 -0.41462708 C107.47707095 -0.45370539 111.62020413 -0.44501385 115.7649231 -0.43200684 C117.61038727 -0.45965118 117.61038727 -0.45965118 119.49313354 -0.487854 C127.54253373 -0.40851423 127.54253373 -0.40851423 130.51962662 1.55891418 C131.94952393 3.13793945 131.94952393 3.13793945 133.58572388 6.28088379 C133.25572388 7.27088379 132.92572388 8.26088379 132.58572388 9.28088379 C131.85648712 8.46981171 131.12725037 7.65873962 130.37591553 6.8230896 C125.56351834 2.85516981 119.89696644 3.57050139 113.94265747 3.60559082 C112.67048874 3.59350082 111.39832001 3.58141083 110.08760071 3.56895447 C106.61036886 3.53660328 103.13373012 3.53489151 99.65637541 3.53905344 C96.01330771 3.53845445 92.37044691 3.51046246 88.72747803 3.48568726 C82.6128239 3.44793792 76.49833903 3.42835475 70.38357544 3.42150879 C61.76200381 3.41180172 53.14085462 3.3675729 44.51943851 3.31728196 C38.54306042 3.28373174 32.56664238 3.25855053 26.59021807 3.23486853 C25.14228482 3.22907812 23.69435254 3.22304156 22.24642134 3.21676111 C17.48760183 3.1964136 12.72886098 3.18572157 7.97000122 3.17980957 C6.76886185 3.17471878 5.56772247 3.16962799 4.33018494 3.16438293 C3.23110306 3.16456924 2.13202118 3.16475555 0.99963379 3.16494751 C0.04507483 3.16314547 -0.90948414 3.16134342 -1.89296913 3.15948677 C-4.21702956 3.27138667 -6.19060007 3.62145611 -8.41427612 4.28088379 C-8.41427612 3.62088379 -8.41427612 2.96088379 -8.41427612 2.28088379 C-5.0538821 0.04062111 -3.93094723 0.02389051 0 0 Z " fill="#009684" transform="translate(98.41427612304688,54.7191162109375)"/>
<path d="M0 0 C1.44623088 0.00025161 1.44623088 0.00025161 2.92167854 0.00050831 C4.02924507 -0.006506 5.1368116 -0.01352032 6.27794075 -0.02074718 C7.49359718 -0.01310345 8.70925362 -0.00545971 9.96174812 0.00241566 C11.24162605 -0.00123501 12.52150398 -0.00488567 13.84016609 -0.00864697 C17.35270888 -0.01806143 20.86497327 -0.00862507 24.37749434 0.00468516 C28.05337602 0.01599649 31.72924393 0.01189228 35.40513802 0.00993824 C41.58062985 0.00905494 47.75601199 0.02014127 53.93147469 0.03854847 C61.06773485 0.05969796 68.20383409 0.06323017 75.34011924 0.05698651 C82.20601261 0.05128722 89.07184939 0.05694638 95.9377346 0.06816006 C98.85867168 0.07280048 101.77957408 0.07368228 104.70051384 0.07157421 C108.782469 0.069337 112.86419976 0.08381609 116.94612312 0.10007191 C118.76353508 0.09635578 118.76353508 0.09635578 120.61766243 0.09256458 C122.28747169 0.1031918 122.28747169 0.1031918 123.99101448 0.1140337 C124.95592245 0.11608657 125.92083042 0.11813944 126.91497803 0.12025452 C129.79073277 0.3945097 131.96731685 1.1780722 134.58333015 2.37473011 C134.58333015 2.70473011 134.58333015 3.03473011 134.58333015 3.37473011 C88.38333015 3.37473011 42.18333015 3.37473011 -5.41666985 3.37473011 C-2.41666985 0.37473011 -2.41666985 0.37473011 0 0 Z " fill="#016C5F" transform="translate(96.41666984558105,60.62526988983154)"/>
<path d="M0 0 C5.28 0 10.56 0 16 0 C16 5.28 16 10.56 16 16 C10.72 16 5.44 16 0 16 C0 21.28 0 26.56 0 32 C-4.95 32 -9.9 32 -15 32 C-13.35393689 28.70787378 -12.07116096 26.73156604 -9.6875 24.0625 C-8.82705078 23.08990234 -8.82705078 23.08990234 -7.94921875 22.09765625 C-6 20 -6 20 -3.3203125 17.734375 C-0.39998776 14.29291487 -0.22666483 11.50742837 -0.1875 7.1875 C-0.0946875 3.6296875 -0.0946875 3.6296875 0 0 Z " fill="#004746" transform="translate(96,176)"/>
<path d="M0 0 C0.33 0 0.66 0 1 0 C1.33 4.95 1.66 9.9 2 15 C2.99 14.67 3.98 14.34 5 14 C5 38.75 5 63.5 5 89 C3.35 89 1.7 89 0 89 C0 59.63 0 30.26 0 0 Z " fill="#016367" transform="translate(240,211)"/>
<path d="M0 0 C0 0.99 0 1.98 0 3 C-0.99 3.495 -0.99 3.495 -2 4 C-1.34 2.68 -0.68 1.36 0 0 Z M-4 5 C-3.34 5.66 -2.68 6.32 -2 7 C-2.72912346 8.00410164 -2.72912346 8.00410164 -3.47297668 9.02848816 C-5.3144349 12.61187475 -5.44052115 15.6113156 -5.43237305 19.54418945 C-5.4425647 20.28619095 -5.45275635 21.02819244 -5.46325684 21.79267883 C-5.4933298 24.23295702 -5.5026438 26.67284229 -5.51171875 29.11328125 C-5.52856971 30.81008706 -5.54672052 32.50688043 -5.56611633 34.20365906 C-5.61357735 38.66041167 -5.64341185 43.1171138 -5.66955566 47.57403564 C-5.6993809 52.12563039 -5.74590449 56.67705125 -5.79101562 61.22851562 C-5.87700434 70.15225271 -5.94436931 79.07602563 -6 88 C-7.65 88 -9.3 88 -11 88 C-11.02312737 79.93347826 -11.04091709 71.86697028 -11.05181217 63.80042362 C-11.05704014 60.05516963 -11.06413622 56.30993824 -11.07543945 52.56469727 C-11.08627141 48.95318313 -11.09227749 45.34169079 -11.09487724 41.73016167 C-11.09673094 40.34939671 -11.10035049 38.968633 -11.10573006 37.58787727 C-11.11294447 35.66024048 -11.11340809 33.73258193 -11.11352539 31.80493164 C-11.115746 30.70572891 -11.11796661 29.60652618 -11.12025452 28.47401428 C-11 26 -11 26 -10 25 C-9.86417542 21.90621785 -9.75206064 18.8194729 -9.74609375 15.72265625 C-9.59591978 11.69957463 -9.1043179 10.12223754 -6.453125 7.015625 C-5.64359375 6.35046875 -4.8340625 5.6853125 -4 5 Z " fill="#01898D" transform="translate(79,212)"/>
<path d="M0 0 C0.33 0 0.66 0 1 0 C1.33 4.62 1.66 9.24 2 14 C2.66 14 3.32 14 4 14 C3.99476318 15.22066162 3.98952637 16.44132324 3.98413086 17.69897461 C3.96567238 22.39232614 3.95341501 27.08567481 3.94396973 31.77905273 C3.93966557 33.88029156 3.93454207 35.98152887 3.92858887 38.08276367 C3.90250235 48.79314354 3.90586341 59.48925158 4.36328125 70.19140625 C4.39465683 70.95533188 4.42603241 71.71925751 4.45835876 72.5063324 C4.60733245 76.03002481 4.78210689 79.54972314 4.99584961 83.07006836 C5.46981399 93.14690613 5.46981399 93.14690613 3.078125 96.875 C2.39234375 97.57625 1.7065625 98.2775 1 99 C0.67 99 0.34 99 0 99 C0 66.33 0 33.66 0 0 Z " fill="#016F67" transform="translate(240,67)"/>
<path d="M0 0 C9.24 0 18.48 0 28 0 C24.39488975 4.20596196 20.78820424 8.38860192 17.1015625 12.51953125 C15.80101753 13.95987248 15.80101753 13.95987248 16 16 C10.72 16 5.44 16 0 16 C0 10.72 0 5.44 0 0 Z " fill="#004442" transform="translate(208,176)"/>
<path d="M0 0 C5.28 0 10.56 0 16 0 C16 5.28 16 10.56 16 16 C10.72 16 5.44 16 0 16 C0 10.72 0 5.44 0 0 Z " fill="#C9AC8E" transform="translate(128,160)"/>
<path d="M0 0 C5.28 0 10.56 0 16 0 C16 5.28 16 10.56 16 16 C10.72 16 5.44 16 0 16 C0 10.72 0 5.44 0 0 Z " fill="#231C1D" transform="translate(80,160)"/>
<path d="M0 0 C5.28 0 10.56 0 16 0 C16 5.28 16 10.56 16 16 C10.72 16 5.44 16 0 16 C0 10.72 0 5.44 0 0 Z " fill="#E3C5A1" transform="translate(176,144)"/>
<path d="M0 0 C5.28 0 10.56 0 16 0 C16 5.28 16 10.56 16 16 C10.72 16 5.44 16 0 16 C0 10.72 0 5.44 0 0 Z " fill="#191819" transform="translate(208,112)"/>
<path d="M0 0 C5.28 0 10.56 0 16 0 C16 5.28 16 10.56 16 16 C10.72 16 5.44 16 0 16 C0 10.72 0 5.44 0 0 Z " fill="#181919" transform="translate(160,112)"/>
<path d="M0 0 C0.33 0 0.66 0 1 0 C1 26.07 1 52.14 1 79 C0.01 79 -0.98 79 -2 79 C-2.04636277 69.43796811 -2.08188925 59.87597498 -2.10362434 50.31385517 C-2.11405666 45.87366576 -2.12820582 41.43355332 -2.15087891 36.9934082 C-2.17262691 32.70754936 -2.18457278 28.4217645 -2.18975449 24.13585472 C-2.19344672 22.50160749 -2.20065674 20.86736426 -2.21146011 19.23314857 C-2.22600111 16.94220895 -2.22797686 14.65157414 -2.22705078 12.3605957 C-2.231492 11.05709671 -2.23593323 9.75359772 -2.24050903 8.41059875 C-2.01047657 5.14856561 -1.41258768 2.92310714 0 0 Z " fill="#015D60" transform="translate(79,221)"/>
<path d="M0 0 C0.33 0 0.66 0 1 0 C1 27.72 1 55.44 1 84 C0.67 84 0.34 84 0 84 C-0.495 77.565 -0.495 77.565 -1 71 C-1.33 71 -1.66 71 -2 71 C-2.04631323 62.18573089 -2.08186401 53.37150358 -2.10362434 44.5571394 C-2.1140675 40.46440017 -2.12823636 36.3717441 -2.15087891 32.27905273 C-2.17258839 28.33036289 -2.18456462 24.38175311 -2.18975449 20.43300819 C-2.19345366 18.92549695 -2.20067711 17.41799014 -2.21146011 15.91051292 C-2.22595004 13.80116637 -2.22797902 11.69215188 -2.22705078 9.58276367 C-2.231492 8.38141281 -2.23593323 7.18006195 -2.24050903 5.94230652 C-2 3 -2 3 0 0 Z " fill="#01665F" transform="translate(79,77)"/>
<path d="M0 0 C0.33 0.66 0.66 1.32 1 2 C0.04060332 3.69036558 -0.96642853 5.35394174 -2 7 C-4.00354721 11.10717753 -4.26527946 14.50076488 -4.30297852 19.05004883 C-4.31141785 19.7401857 -4.31985718 20.43032257 -4.32855225 21.14137268 C-4.3542509 23.41326631 -4.36645678 25.68502984 -4.37890625 27.95703125 C-4.39509643 29.54498807 -4.41227801 31.13293507 -4.43040466 32.72087097 C-4.476034 36.89836042 -4.51085486 41.07586352 -4.54260254 45.253479 C-4.59450454 51.92861714 -4.6600602 58.60360841 -4.73081779 65.27857018 C-4.75347637 67.60048031 -4.7698636 69.92237258 -4.78553772 72.24433899 C-4.79896084 73.68348376 -4.81257702 75.12262675 -4.82641602 76.56176758 C-4.83592789 77.80799393 -4.84543976 79.05422028 -4.85523987 80.33821106 C-5.01134268 84.28691956 -5.45860604 88.08732794 -6 92 C-6.33 92 -6.66 92 -7 92 C-7.20039035 81.67319283 -7.38408805 71.34623574 -7.54658794 61.01875877 C-7.6225687 56.22308978 -7.70425673 51.42766074 -7.79907227 46.63232422 C-7.8903944 42.00297645 -7.96661423 37.37360191 -8.03244972 32.74382401 C-8.06018196 30.97914001 -8.09331894 29.21453225 -8.13199425 27.45005417 C-8.18531371 24.9749898 -8.21925916 22.50034939 -8.2487793 20.02490234 C-8.26891586 19.29841492 -8.28905243 18.57192749 -8.30979919 17.82342529 C-8.35847484 10.09256766 -4.86949973 5.52754023 0 0 Z " fill="#018A7F" transform="translate(79,67)"/>
<path d="M0 0 C0.33 0 0.66 0 1 0 C1 3.3 1 6.6 1 10 C1.66 10 2.32 10 3 10 C3 33.1 3 56.2 3 80 C2.01 80.495 2.01 80.495 1 81 C0.06577017 71.66592098 -0.22228534 62.36102269 -0.3515625 52.98828125 C-0.37473805 51.48324767 -0.39812864 49.97821739 -0.42172241 48.47319031 C-0.46974315 45.34780138 -0.51474653 42.22238749 -0.55761719 39.09692383 C-0.61297339 35.08406143 -0.67675409 31.07138152 -0.74279213 27.05868244 C-0.79268852 23.96450121 -0.83787408 20.87026501 -0.88163376 17.77599144 C-0.90322072 16.29472716 -0.92637128 14.81348484 -0.9510994 13.33226967 C-0.98478516 11.27664105 -1.01206097 9.22102693 -1.03759766 7.1652832 C-1.05456696 5.99568558 -1.07153625 4.82608795 -1.08901978 3.62104797 C-1 1 -1 1 0 0 Z " fill="#018A80" transform="translate(246,80)"/>
<path d="M0 0 C0.66 0 1.32 0 2 0 C2 5.28 2 10.56 2 16 C1.34 16 0.68 16 0 16 C0 21.28 0 26.56 0 32 C-4.95 32 -9.9 32 -15 32 C-13.35393689 28.70787378 -12.07116096 26.73156604 -9.6875 24.0625 C-8.82705078 23.08990234 -8.82705078 23.08990234 -7.94921875 22.09765625 C-6 20 -6 20 -3.3203125 17.734375 C-0.40410505 14.29776689 -0.22473941 11.51140946 -0.1875 7.1875 C-0.16236328 6.49462891 -0.13722656 5.80175781 -0.11132812 5.08789062 C-0.05286737 3.39252878 -0.02346953 1.69620713 0 0 Z " fill="#00706F" transform="translate(96,176)"/>
<path d="M0 0 C4.8 3.32307692 4.8 3.32307692 5.8125 6.75 C5.874375 7.4925 5.93625 8.235 6 9 C0.125 5.125 0.125 5.125 -1 4 C-2.68252579 3.89165136 -4.3695847 3.85314043 -6.05555725 3.84178162 C-7.15077194 3.8319928 -8.24598663 3.82220398 -9.37438965 3.81211853 C-11.19239075 3.80348534 -11.19239075 3.80348534 -13.04711914 3.79467773 C-14.31522934 3.78477814 -15.58333954 3.77487854 -16.88987732 3.76467896 C-20.37728981 3.73756697 -23.86471593 3.71659162 -27.35217595 3.69667697 C-30.99306442 3.67485609 -34.63391061 3.6474484 -38.27476501 3.62062073 C-45.17373905 3.57064095 -52.07273648 3.52572181 -58.9717564 3.48259836 C-66.82413688 3.43327105 -74.67647494 3.37833627 -82.52881444 3.32291877 C-98.68583723 3.20901764 -114.84289885 3.1021964 -131 3 C-131 2.67 -131 2.34 -131 2 C-87.77 2 -44.54 2 0 2 C0 1.34 0 0.68 0 0 Z " fill="#008C7B" transform="translate(226,55)"/>
<path d="M0 0 C-0.875 1.02083333 -1.75 2.04166667 -2.625 3.0625 C-3.16640625 3.69671875 -3.7078125 4.3309375 -4.265625 4.984375 C-5.41160914 6.3161944 -6.56774523 7.63935274 -7.734375 8.953125 C-8.27578125 9.56671875 -8.8171875 10.1803125 -9.375 10.8125 C-9.87773437 11.37582031 -10.38046875 11.93914062 -10.8984375 12.51953125 C-12.19898247 13.95987248 -12.19898247 13.95987248 -12 16 C-14.97 16 -17.94 16 -21 16 C-18.76685474 11.53370947 -16.06882663 7.91014985 -13 4 C-12.401875 3.175 -11.80375 2.35 -11.1875 1.5 C-7.71364663 -0.88207088 -4.08371687 -0.31413207 0 0 Z " fill="#01605E" transform="translate(236,176)"/>
<path d="M0 0 C0.33 0 0.66 0 1 0 C1.26339623 7.59842003 1.52434192 15.19692103 1.78230286 22.79552746 C1.90220493 26.32523345 2.02289814 29.85490842 2.14550781 33.38452148 C2.28697615 37.45808862 2.42480832 41.5317722 2.5625 45.60546875 C2.60624756 46.8507988 2.64999512 48.09612885 2.69506836 49.37919617 C2.8131654 52.91921129 2.90906758 56.45919465 3 60 C3.04366699 61.21466949 3.08733398 62.42933899 3.13232422 63.68081665 C3.15955566 64.84615936 3.18678711 66.01150208 3.21484375 67.2121582 C3.24570068 68.25402786 3.27655762 69.29589752 3.30834961 70.36933899 C3 73 3 73 0 76 C0 50.92 0 25.84 0 0 Z " fill="#01635D" transform="translate(240,86)"/>
<path d="M0 0 C0.62036133 1.79370117 0.62036133 1.79370117 1 4 C0.36449219 5.08925781 -0.27101563 6.17851563 -0.92578125 7.30078125 C-3.96299721 12.96110673 -3.41524815 18.81013533 -3.24462891 25.08447266 C-3.14796226 28.64296178 -3.11582671 32.20223619 -3.07421875 35.76171875 C-3.0640976 36.46589935 -3.05397644 37.17007996 -3.04354858 37.89559937 C-2.96518065 44.1098062 -3.15979605 50.29443806 -3.5 56.5 C-3.54793701 57.3768042 -3.59587402 58.2536084 -3.64526367 59.15698242 C-3.75683928 61.10504842 -3.87719161 63.05260986 -4 65 C-4.33 65 -4.66 65 -5 65 C-5.07613917 57.27708255 -5.12863758 49.55426212 -5.16479492 41.83105469 C-5.1798702 39.20439029 -5.20033366 36.57775101 -5.22631836 33.95117188 C-5.26275576 30.17311396 -5.27973938 26.39538923 -5.29296875 22.6171875 C-5.30845261 21.44509735 -5.32393646 20.2730072 -5.33988953 19.06539917 C-5.34108217 13.27204817 -5.29285874 8.99431549 -2 4 C-1.608125 3.21625 -1.21625 2.4325 -0.8125 1.625 C-0.544375 1.08875 -0.27625 0.5525 0 0 Z " fill="#017F74" transform="translate(79,69)"/>
<path d="M0 0 C0 3.63 0 7.26 0 11 C-3.63 11 -7.26 11 -11 11 C-8.73644388 5.34110971 -8.73644388 5.34110971 -5.5 2.6875 C-4.8915625 2.17574219 -4.283125 1.66398438 -3.65625 1.13671875 C-2 0 -2 0 0 0 Z " fill="#016363" transform="translate(96,197)"/>
<path d="M0 0 C0.99 0.33 1.98 0.66 3 1 C4.06902939 3.30252483 5.07175817 5.6372026 6 8 C6.33 8.33 6.66 8.66 7 9 C7.04063832 10.66617115 7.042721 12.33388095 7 14 C4.69 14 2.38 14 0 14 C0 9.38 0 4.76 0 0 Z " fill="#014E4E" transform="translate(224,194)"/>
<path d="M0 0 C0.70125 0.12375 1.4025 0.2475 2.125 0.375 C1.25 1.39583333 0.375 2.41666667 -0.5 3.4375 C-1.04140625 4.07171875 -1.5828125 4.7059375 -2.140625 5.359375 C-3.28660914 6.6911944 -4.44274523 8.01435274 -5.609375 9.328125 C-6.15078125 9.94171875 -6.6921875 10.5553125 -7.25 11.1875 C-7.75273437 11.75082031 -8.25546875 12.31414062 -8.7734375 12.89453125 C-10.07398247 14.33487248 -10.07398247 14.33487248 -9.875 16.375 C-11.525 16.375 -13.175 16.375 -14.875 16.375 C-6.19968495 0.80865456 -6.19968495 0.80865456 0 0 Z " fill="#017573" transform="translate(233.875,175.625)"/>
<path d="M0 0 C0.66 0.33 1.32 0.66 2 1 C0.35 2.32 -1.3 3.64 -3 5 C-1.125 1.125 -1.125 1.125 0 0 Z M-5 6 C-5 10.03223106 -6.64129026 11.80880447 -9 15 C-9.99 15.495 -9.99 15.495 -11 16 C-10.49477778 11.62140745 -7.82172778 9.18348776 -5 6 Z " fill="#016967" transform="translate(229,176)"/>
<path d="M0 0 C0 0.99 0 1.98 0 3 C-0.99 3.495 -0.99 3.495 -2 4 C-1.34 2.68 -0.68 1.36 0 0 Z M-4 5 C-3.34 5.66 -2.68 6.32 -2 7 C-3.485 9.475 -3.485 9.475 -5 12 C-6.32 11.67 -7.64 11.34 -9 11 C-7.35 9.02 -5.7 7.04 -4 5 Z " fill="#017C7E" transform="translate(79,212)"/>
<path d="M0 0 C0.33 0 0.66 0 1 0 C1 2.31 1 4.62 1 7 C-1.31 7 -3.62 7 -6 7 C-5.02433888 5.83040013 -4.044375 4.66438823 -3.0625 3.5 C-2.51722656 2.8503125 -1.97195312 2.200625 -1.41015625 1.53125 C-0.71212891 0.77328125 -0.71212891 0.77328125 0 0 Z " fill="#014646" transform="translate(95,201)"/>
<path d="M0 0 C0.99 0.33 1.98 0.66 3 1 C4.1875 4.5625 4.1875 4.5625 5 8 C4.34 8 3.68 8 3 8 C3 7.01 3 6.02 3 5 C2.01 5 1.02 5 0 5 C0 3.35 0 1.7 0 0 Z " fill="#016A69" transform="translate(224,194)"/>
<path d="M0 0 C0.66 0.33 1.32 0.66 2 1 C-0.31 3.31 -2.62 5.62 -5 8 C-5.66 7.67 -6.32 7.34 -7 7 C-4.78071806 4.09197539 -3.07030857 2.04687238 0 0 Z " fill="#015656" transform="translate(94,200)"/>
</svg>
